<svg id="Capa_1" enable-background="new 0 0 512 512" height="512" viewBox="0 0 512 512" width="512" xmlns="http://www.w3.org/2000/svg"><g><path d="m397.976 376.764c30.006-31.462 52.683-69.541 65.975-111.02l.876-2.734c7.908-24.679 8.245-50.87.973-75.744-7.271-24.874-21.663-46.761-41.618-63.295-2.752-2.28-5.585-4.427-8.484-6.456l31.913-31.913c5.874 2.817 12.45 4.398 19.389 4.398 24.813 0 45-20.187 45-45s-20.187-45-45-45-45 20.187-45 45c0 6.939 1.581 13.514 4.398 19.389l-38.39 38.39c-17.666-6.787-36.753-9.64-56.112-8.175-28.417 2.156-54.864 13.414-75.895 32.067-21.031-18.653-47.478-29.911-75.895-32.067-19.358-1.469-38.447 1.384-56.114 8.173l-38.39-38.388c2.817-5.875 4.398-12.45 4.398-19.389 0-24.813-20.187-45-45-45s-45 20.187-45 45 20.187 45 45 45c6.939 0 13.515-1.581 19.39-4.398l31.912 31.913c-2.899 2.029-5.732 4.176-8.484 6.456-19.955 16.534-34.347 38.421-41.618 63.295s-6.935 51.065.973 75.742l.877 2.738c13.291 41.477 35.968 79.556 65.974 111.018l-109.63 109.63c-5.858 5.857-5.858 15.355 0 21.213 2.929 2.929 6.767 4.393 10.606 4.393 3.838 0 7.678-1.465 10.606-4.394l110.236-110.235c33.633 28.569 73.637 49.19 116.507 59.946 1.198.301 2.424.451 3.65.451s2.452-.15 3.65-.451c42.87-10.756 82.875-31.378 116.507-59.946l110.236 110.235c2.93 2.929 6.769 4.394 10.608 4.394s7.678-1.465 10.606-4.394c5.858-5.857 5.858-15.355 0-21.213zm69.024-346.764c8.271 0 15 6.729 15 15s-6.729 15-15 15-15-6.729-15-15 6.729-15 15-15zm-422 30c-8.271 0-15-6.729-15-15s6.729-15 15-15 15 6.729 15 15-6.729 15-15 15zm355.189 267.004-26.004-26.004h42.197c-4.879 8.979-10.289 17.664-16.193 26.004zm36.068-73.147-.876 2.734c-1.557 4.858-3.263 9.661-5.102 14.408h-86.093l-30-30h125.264c-.779 4.307-1.829 8.601-3.193 12.858zm-102.092-129.338c25.792-1.953 50.961 6.053 70.877 22.554 1.531 1.269 3.003 2.586 4.442 3.928h-135.632c16.464-15.433 37.564-24.756 60.313-26.482zm97.329 56.481c4.504 9.472 7.464 19.594 8.774 30h-156.083l-30-30zm-193.345-30h-13.963l-21.303-21.303c13.065 4.516 25.057 11.734 35.266 21.303zm-166.372 59.618 30.383 30.382h-29.609c-1.838-10.171-2.069-20.407-.774-30.382zm23.841 90.382c-5.261-9.681-9.906-19.703-13.896-30h50.438l30 30zm19.08 30h77.462l30 30h-81.59c-9.396-9.333-18.041-19.372-25.872-30zm141.302 96.275c-28.247-7.531-55.037-19.853-79.107-36.275h75.266l28.385 28.385c-8.034 3.032-16.225 5.672-24.544 7.89zm53.804-21.056-227.953-227.953c4.582-8.915 10.565-17.196 17.842-24.531l236.507 236.507c-8.475 5.846-17.292 11.182-26.396 15.977zm56.314-40.083c-1.998 1.873-4.025 3.712-6.079 5.518l-235.989-235.99c9.997-5.282 20.791-8.79 31.973-10.401l225.321 225.321c-4.85 5.388-9.925 10.581-15.226 15.552z"/></g></svg>